<svg width="34" height="42" viewBox="0 0 34 42" fill="none" xmlns="http://www.w3.org/2000/svg">
<path d="M8.88672 19.8542L11.06 19.1484L14.5353 21.0311L14.1731 22.1895L10.8429 21.3207L8.88672 19.8542Z" fill="#EAFFFE"/>
<path d="M14.9015 23.5017L10.3618 22.3178L6.56042 19.4682L11.1676 17.9717L15.8388 20.5021L14.9015 23.5017Z" fill="#EAFFFE"/>
<path d="M24.2823 19.8542L22.1085 19.1484L18.6332 21.0311L18.9954 22.1895L22.3261 21.3207L24.2823 19.8542Z" fill="#EAFFFE"/>
<path d="M18.2676 23.5017L17.3303 20.5021L22.001 17.9717L26.6086 19.4682L22.8068 22.3178L18.2676 23.5017Z" fill="#EAFFFE"/>
<path fill-rule="evenodd" clip-rule="evenodd" d="M9.71891 32.6176L4.91046 31.0177L5.59627 28.9565L11.7498 31.004L12.487 38.8893L10.3242 39.0915L9.71891 32.6176Z" fill="#EAFFFE"/>
<path fill-rule="evenodd" clip-rule="evenodd" d="M27.6043 28.9565L28.2901 31.0177L23.4821 32.6176L22.8764 39.0916L20.7135 38.8892L21.4513 31.004L27.6043 28.9565Z" fill="#EAFFFE"/>
<path d="M17.1327 41.116H13.657L5.4925 38.0819L4.69671 33.1701L1.62709 24.3714V19.0119L0 16.3675L1.22445 0H5.95367L6.36632 6.74896L9.8891 3.49677L16.8841 2.07676L17.3818 4.52765L11.072 5.80861L4.19103 12.1599L3.60131 2.50091H3.54529L2.55443 15.7462L4.128 18.3037V23.9477L7.1306 32.5539L7.72831 36.2447L14.1066 38.6151H17.1327V41.116Z" fill="#EAFFFE"/>
<path d="M19.8628 41.116H16.3865V38.6151H19.4131L25.7915 36.2447L26.3892 32.5539L26.4252 32.4498L29.3913 23.9477V18.3037L30.9653 15.7462L29.9745 2.50091H29.9185L29.3287 12.1599L22.4477 5.80861L16.1379 4.52765L16.6356 2.07676L23.6307 3.49677L27.1534 6.74896L27.5656 0H32.2948L33.5198 16.3675L31.8922 19.0119V24.3714L28.8226 33.1701L28.0273 38.0819L19.8628 41.116Z" fill="#EAFFFE"/>
</svg>
