<svg width="143" height="16" viewBox="0 0 143 16" fill="none" xmlns="http://www.w3.org/2000/svg">
<path d="M9.65778 0.663788H0.776733V3.19242H9.0616C10.9941 3.19242 12.022 3.89139 12.022 5.49491C12.022 7.07788 10.9941 7.85908 9.0616 7.85908H0.776733V15.0544H4.10713V10.3672H9.26718C13.2349 10.3672 15.414 8.76363 15.414 5.49491C15.414 2.59624 13.5844 0.663788 9.65778 0.663788Z" fill="#EAFFFE"/>
<path d="M31.5011 11.8679C31.5011 9.83265 30.9666 8.82531 29.2397 8.35248C30.576 7.92076 31.8712 6.85174 31.8712 4.73427C31.8712 1.87671 29.7537 0.663788 25.9505 0.663788H17.0489V15.0544H20.3587V9.64763H25.1898C27.5129 9.64763 28.1913 10.4288 28.1913 12.1351C28.1913 13.7798 28.1913 14.3554 28.6436 15.0544H32.344C31.9123 14.6021 31.5011 13.677 31.5011 11.8679ZM25.971 7.22179H20.3587V3.19242H25.8271C27.7801 3.19242 28.4791 3.89139 28.4791 5.08376C28.4791 6.21445 27.924 7.22179 25.971 7.22179Z" fill="#EAFFFE"/>
<path d="M33.7827 0.663788V15.0544H37.0926V0.663788H33.7827Z" fill="#EAFFFE"/>
<path d="M54.0073 0.663788L49.2584 10.3055L44.5301 0.663788H39.555V15.0544H42.8649V3.27465L47.7782 13.1014H50.7386L55.6519 3.27465V15.0544H58.9823V0.663788H54.0073Z" fill="#EAFFFE"/>
<path d="M69.2194 0.375977C65.0667 0.375977 60.6262 2.3701 60.6262 7.85908C60.6262 13.3686 65.0667 15.3627 69.2194 15.3627C73.3721 15.3627 77.7921 13.3686 77.7921 7.85908C77.7921 2.3701 73.3721 0.375977 69.2194 0.375977ZM69.2194 12.8547C65.6423 12.8547 64.0182 10.6961 64.0182 7.85908C64.0182 5.04264 65.6423 2.88405 69.2194 2.88405C72.7965 2.88405 74.4206 5.04264 74.4206 7.85908C74.4206 10.6961 72.7965 12.8547 69.2194 12.8547Z" fill="#EAFFFE"/>
<path d="M91.7002 7.5096V7.42737C93.2626 6.95453 94.1055 6.04998 94.1055 4.34367C94.1055 1.46555 91.988 0.663788 88.5343 0.663788H79.4271V3.19242H88.6987C90.0145 3.19242 90.919 3.6447 90.919 4.87818C90.919 6.11166 90.1172 6.58449 88.6987 6.58449H79.4271V15.0544H88.1026C92.5842 15.0544 94.6606 14.0676 94.6606 10.7989C94.6606 8.94866 93.5915 7.96187 91.7002 7.5096ZM88.781 12.5052H82.7575V8.94866H88.781C90.3845 8.94866 91.2685 9.33926 91.2685 10.5727C91.2685 11.7651 90.6723 12.5052 88.781 12.5052Z" fill="#EAFFFE"/>
<path d="M104.072 0.375977C99.9197 0.375977 95.4792 2.3701 95.4792 7.85908C95.4792 13.3686 99.9197 15.3627 104.072 15.3627C108.225 15.3627 112.645 13.3686 112.645 7.85908C112.645 2.3701 108.225 0.375977 104.072 0.375977ZM104.072 12.8547C100.495 12.8547 98.8712 10.6961 98.8712 7.85908C98.8712 5.04264 100.495 2.88405 104.072 2.88405C107.65 2.88405 109.274 5.04264 109.274 7.85908C109.274 10.6961 107.65 12.8547 104.072 12.8547Z" fill="#EAFFFE"/>
<path d="M127.041 0.663788H112.835V3.21298H118.283V15.0544H121.593V3.21298H127.041V0.663788Z" fill="#EAFFFE"/>
<path d="M136.009 6.4817C133.48 6.13221 131.095 6.04998 131.095 4.69315C131.095 3.70637 131.794 2.90461 134.755 2.90461C137.407 2.90461 138.599 3.82972 138.722 4.85762H141.929C141.847 2.30843 139.874 0.375977 134.796 0.375977C129.512 0.375977 127.909 2.55512 127.909 4.91929C127.909 7.18067 129.142 8.37303 133.069 9.03089C136.995 9.68874 139.216 9.54484 139.216 11.025C139.216 12.1146 138.064 12.8341 135.33 12.8341C132.719 12.8341 130.992 12.0735 130.91 10.5727H127.456C127.456 13.492 130.067 15.3627 135.042 15.3627C140.161 15.3627 142.731 13.6976 142.731 10.5727C142.731 7.36569 139.976 7.03677 136.009 6.4817Z" fill="#EAFFFE"/>
</svg>
